<mxfile compressed="false" host="Electron" modified="2022-05-01T06:30:49.870Z" agent="5.0 (Windows NT 10.0; Win64; x64) AppleWebKit/537.36 (KHTML, like Gecko) draw.io/17.4.2 Chrome/100.0.4896.60 Electron/18.0.1 Safari/537.36" etag="KHwx8uegPMYfK1z1x2GF" version="17.4.2" type="device">
  <diagram id="lkXP3y-HEp1vC13bDOkM" name="Page-1">
    <mxGraphModel dx="1422" dy="1303" grid="1" gridSize="10" guides="1" tooltips="1" connect="1" arrows="1" fold="1" page="0" pageScale="1" pageWidth="850" pageHeight="1100" background="none" math="0" shadow="0">
      <root>
        <mxCell id="0" />
        <mxCell id="1" parent="0" />
        <mxCell id="YGFIU_GqPBIm1zr8gWTs-59" value="d" style="swimlane;fontFamily=Helvetica;fontSize=11;rounded=1;labelBackgroundColor=none;labelBorderColor=none;swimlaneFillColor=#FFFF99;dashed=1;dashPattern=1 4;" parent="1" vertex="1">
          <mxGeometry x="640" y="-140" width="890" height="120" as="geometry">
            <mxRectangle x="780" y="-80" width="60" height="23" as="alternateBounds" />
          </mxGeometry>
        </mxCell>
        <mxCell id="YGFIU_GqPBIm1zr8gWTs-2" value="InterlockedBoolean" style="rounded=1;whiteSpace=wrap;html=1;" parent="YGFIU_GqPBIm1zr8gWTs-59" vertex="1">
          <mxGeometry x="20" y="40" width="120" height="60" as="geometry" />
        </mxCell>
        <mxCell id="mjkWCdsLksWHs1kqDIjj-1" value="IBooleanFlag" style="rounded=1;whiteSpace=wrap;html=1;" parent="YGFIU_GqPBIm1zr8gWTs-59" vertex="1">
          <mxGeometry x="160" y="40" width="120" height="60" as="geometry" />
        </mxCell>
        <mxCell id="YGFIU_GqPBIm1zr8gWTs-1" value="Blittable" style="rounded=1;whiteSpace=wrap;html=1;" parent="YGFIU_GqPBIm1zr8gWTs-59" vertex="1">
          <mxGeometry x="300" y="40" width="120" height="60" as="geometry" />
        </mxCell>
        <mxCell id="YGFIU_GqPBIm1zr8gWTs-41" value="CLTaskParameterData" style="rounded=1;whiteSpace=wrap;html=1;fontFamily=Helvetica;fontSize=11;fontColor=default;" parent="YGFIU_GqPBIm1zr8gWTs-59" vertex="1">
          <mxGeometry x="440" y="40" width="120" height="60" as="geometry" />
        </mxCell>
        <mxCell id="YGFIU_GqPBIm1zr8gWTs-26" value="CLTaskGlobalData&lt;br&gt;[CORE]" style="rounded=1;whiteSpace=wrap;html=1;fontFamily=Helvetica;fontSize=11;fontColor=default;" parent="YGFIU_GqPBIm1zr8gWTs-59" vertex="1">
          <mxGeometry x="580" y="40" width="120" height="60" as="geometry" />
        </mxCell>
        <mxCell id="VZ1KXGJ9L-8FEpO1o7LE-1" value="SimpleDelegateContainer" style="rounded=1;whiteSpace=wrap;html=1;" parent="YGFIU_GqPBIm1zr8gWTs-59" vertex="1">
          <mxGeometry x="720" y="40" width="150" height="60" as="geometry" />
        </mxCell>
        <mxCell id="YGFIU_GqPBIm1zr8gWTs-69" value="Invoke state" style="swimlane;rounded=1;fontFamily=Helvetica;fontSize=11;fontColor=default;strokeColor=default;fillColor=default;html=1;labelBackgroundColor=none;labelBorderColor=none;swimlaneFillColor=#FFFF99;dashed=1;dashPattern=1 4;" parent="1" vertex="1">
          <mxGeometry x="962" y="602" width="450" height="520" as="geometry">
            <mxRectangle x="890" y="550" width="90" height="23" as="alternateBounds" />
          </mxGeometry>
        </mxCell>
        <mxCell id="YGFIU_GqPBIm1zr8gWTs-33" value="CLTaskBranchInvoker" style="rounded=1;whiteSpace=wrap;html=1;fontFamily=Helvetica;fontSize=11;fontColor=default;" parent="YGFIU_GqPBIm1zr8gWTs-69" vertex="1">
          <mxGeometry x="10" y="450" width="120" height="60" as="geometry" />
        </mxCell>
        <mxCell id="YGFIU_GqPBIm1zr8gWTs-31" value="CLTaskErrHandler" style="rounded=1;whiteSpace=wrap;html=1;fontFamily=Helvetica;fontSize=11;fontColor=default;" parent="YGFIU_GqPBIm1zr8gWTs-69" vertex="1">
          <mxGeometry x="20" y="30" width="120" height="60" as="geometry" />
        </mxCell>
        <mxCell id="YGFIU_GqPBIm1zr8gWTs-34" value="" style="edgeStyle=none;shape=connector;rounded=0;orthogonalLoop=1;jettySize=auto;html=1;labelBackgroundColor=default;fontFamily=Helvetica;fontSize=11;fontColor=default;endArrow=classic;strokeColor=default;" parent="YGFIU_GqPBIm1zr8gWTs-69" source="YGFIU_GqPBIm1zr8gWTs-31" target="YGFIU_GqPBIm1zr8gWTs-33" edge="1">
          <mxGeometry relative="1" as="geometry" />
        </mxCell>
        <mxCell id="YGFIU_GqPBIm1zr8gWTs-38" value="MultiuseableResultData" style="whiteSpace=wrap;html=1;fontSize=11;rounded=1;" parent="YGFIU_GqPBIm1zr8gWTs-69" vertex="1">
          <mxGeometry x="100" y="250" width="120" height="60" as="geometry" />
        </mxCell>
        <mxCell id="YGFIU_GqPBIm1zr8gWTs-39" value="" style="edgeStyle=none;shape=connector;rounded=0;orthogonalLoop=1;jettySize=auto;html=1;labelBackgroundColor=default;fontFamily=Helvetica;fontSize=11;fontColor=default;endArrow=classic;strokeColor=default;" parent="YGFIU_GqPBIm1zr8gWTs-69" source="YGFIU_GqPBIm1zr8gWTs-31" target="YGFIU_GqPBIm1zr8gWTs-38" edge="1">
          <mxGeometry relative="1" as="geometry" />
        </mxCell>
        <mxCell id="YGFIU_GqPBIm1zr8gWTs-29" value="CLTaskGlobalData" style="rounded=1;whiteSpace=wrap;html=1;fontFamily=Helvetica;fontSize=11;fontColor=default;" parent="YGFIU_GqPBIm1zr8gWTs-69" vertex="1">
          <mxGeometry x="300" y="340" width="120" height="60" as="geometry" />
        </mxCell>
        <mxCell id="YGFIU_GqPBIm1zr8gWTs-57" value="FinishInvoke" style="edgeStyle=none;shape=connector;rounded=0;orthogonalLoop=1;jettySize=auto;html=1;labelBackgroundColor=default;fontFamily=Helvetica;fontSize=11;fontColor=default;endArrow=classic;strokeColor=default;" parent="YGFIU_GqPBIm1zr8gWTs-69" source="YGFIU_GqPBIm1zr8gWTs-38" target="YGFIU_GqPBIm1zr8gWTs-29" edge="1">
          <mxGeometry relative="1" as="geometry" />
        </mxCell>
        <mxCell id="YGFIU_GqPBIm1zr8gWTs-58" value="FinishExecution" style="edgeStyle=none;shape=connector;rounded=0;orthogonalLoop=1;jettySize=auto;html=1;labelBackgroundColor=default;fontFamily=Helvetica;fontSize=11;fontColor=default;endArrow=classic;strokeColor=default;" parent="YGFIU_GqPBIm1zr8gWTs-69" source="YGFIU_GqPBIm1zr8gWTs-31" target="YGFIU_GqPBIm1zr8gWTs-29" edge="1">
          <mxGeometry relative="1" as="geometry" />
        </mxCell>
        <mxCell id="YGFIU_GqPBIm1zr8gWTs-67" value="Invoke result" style="swimlane;rounded=1;fontFamily=Helvetica;fontSize=11;fontColor=default;strokeColor=default;fillColor=default;html=1;labelBackgroundColor=none;labelBorderColor=none;swimlaneFillColor=#FFFF99;dashed=1;dashPattern=1 4;" parent="1" vertex="1">
          <mxGeometry x="250" y="50" width="640" height="570" as="geometry">
            <mxRectangle x="230" y="60" width="160" height="23" as="alternateBounds" />
          </mxGeometry>
        </mxCell>
        <mxCell id="YGFIU_GqPBIm1zr8gWTs-10" value="EventList" style="rounded=1;whiteSpace=wrap;html=1;" parent="YGFIU_GqPBIm1zr8gWTs-67" vertex="1">
          <mxGeometry x="140" y="30" width="120" height="60" as="geometry" />
        </mxCell>
        <mxCell id="YGFIU_GqPBIm1zr8gWTs-11" value="DoubleEventListList" style="rounded=1;whiteSpace=wrap;html=1;" parent="YGFIU_GqPBIm1zr8gWTs-67" vertex="1">
          <mxGeometry x="20" y="110" width="120" height="60" as="geometry" />
        </mxCell>
        <mxCell id="YGFIU_GqPBIm1zr8gWTs-12" value="" style="rounded=0;orthogonalLoop=1;jettySize=auto;html=1;" parent="YGFIU_GqPBIm1zr8gWTs-67" source="YGFIU_GqPBIm1zr8gWTs-10" target="YGFIU_GqPBIm1zr8gWTs-11" edge="1">
          <mxGeometry relative="1" as="geometry" />
        </mxCell>
        <mxCell id="YGFIU_GqPBIm1zr8gWTs-13" value="" style="rounded=0;orthogonalLoop=1;jettySize=auto;html=1;" parent="YGFIU_GqPBIm1zr8gWTs-67" source="YGFIU_GqPBIm1zr8gWTs-10" target="YGFIU_GqPBIm1zr8gWTs-11" edge="1">
          <mxGeometry relative="1" as="geometry" />
        </mxCell>
        <mxCell id="YGFIU_GqPBIm1zr8gWTs-65" value="QueueResAction" style="whiteSpace=wrap;html=1;rounded=1;fontFamily=Helvetica;fontSize=11;fontColor=default;strokeColor=default;fillColor=default;" parent="YGFIU_GqPBIm1zr8gWTs-67" vertex="1">
          <mxGeometry x="75" y="280" width="120" height="60" as="geometry" />
        </mxCell>
        <mxCell id="YGFIU_GqPBIm1zr8gWTs-17" value="CLTaskLocalData" style="whiteSpace=wrap;html=1;rounded=1;" parent="YGFIU_GqPBIm1zr8gWTs-67" vertex="1">
          <mxGeometry x="190" y="410" width="120" height="60" as="geometry" />
        </mxCell>
        <mxCell id="YGFIU_GqPBIm1zr8gWTs-18" value="" style="rounded=0;orthogonalLoop=1;jettySize=auto;html=1;" parent="YGFIU_GqPBIm1zr8gWTs-67" source="YGFIU_GqPBIm1zr8gWTs-10" target="YGFIU_GqPBIm1zr8gWTs-17" edge="1">
          <mxGeometry relative="1" as="geometry" />
        </mxCell>
        <mxCell id="YGFIU_GqPBIm1zr8gWTs-66" value="compl d" style="edgeStyle=none;shape=connector;rounded=0;orthogonalLoop=1;jettySize=auto;html=1;labelBackgroundColor=default;fontFamily=Helvetica;fontSize=11;fontColor=default;endArrow=classic;strokeColor=default;" parent="YGFIU_GqPBIm1zr8gWTs-67" source="YGFIU_GqPBIm1zr8gWTs-65" target="YGFIU_GqPBIm1zr8gWTs-17" edge="1">
          <mxGeometry relative="1" as="geometry" />
        </mxCell>
        <mxCell id="YGFIU_GqPBIm1zr8gWTs-15" value="UserEvent" style="rounded=1;whiteSpace=wrap;html=1;" parent="YGFIU_GqPBIm1zr8gWTs-67" vertex="1">
          <mxGeometry x="380" y="140" width="120" height="60" as="geometry" />
        </mxCell>
        <mxCell id="YGFIU_GqPBIm1zr8gWTs-16" value="" style="rounded=0;orthogonalLoop=1;jettySize=auto;html=1;" parent="YGFIU_GqPBIm1zr8gWTs-67" source="YGFIU_GqPBIm1zr8gWTs-10" target="YGFIU_GqPBIm1zr8gWTs-15" edge="1">
          <mxGeometry relative="1" as="geometry" />
        </mxCell>
        <mxCell id="YGFIU_GqPBIm1zr8gWTs-6" value="QueueRes" style="rounded=1;whiteSpace=wrap;html=1;" parent="YGFIU_GqPBIm1zr8gWTs-67" vertex="1">
          <mxGeometry x="480" y="490" width="120" height="60" as="geometry" />
        </mxCell>
        <mxCell id="YGFIU_GqPBIm1zr8gWTs-21" value="" style="rounded=0;orthogonalLoop=1;jettySize=auto;html=1;" parent="YGFIU_GqPBIm1zr8gWTs-67" source="YGFIU_GqPBIm1zr8gWTs-10" target="YGFIU_GqPBIm1zr8gWTs-6" edge="1">
          <mxGeometry relative="1" as="geometry" />
        </mxCell>
        <mxCell id="YGFIU_GqPBIm1zr8gWTs-43" value="attach act" style="edgeStyle=none;shape=connector;rounded=0;orthogonalLoop=1;jettySize=auto;html=1;labelBackgroundColor=default;fontFamily=Helvetica;fontSize=11;fontColor=default;endArrow=classic;strokeColor=default;" parent="YGFIU_GqPBIm1zr8gWTs-67" source="YGFIU_GqPBIm1zr8gWTs-15" target="YGFIU_GqPBIm1zr8gWTs-6" edge="1">
          <mxGeometry relative="1" as="geometry" />
        </mxCell>
        <mxCell id="YGFIU_GqPBIm1zr8gWTs-50" value="ctor" style="edgeStyle=none;shape=connector;rounded=0;orthogonalLoop=1;jettySize=auto;html=1;labelBackgroundColor=default;fontFamily=Helvetica;fontSize=11;fontColor=default;endArrow=classic;strokeColor=default;" parent="YGFIU_GqPBIm1zr8gWTs-67" source="YGFIU_GqPBIm1zr8gWTs-17" target="YGFIU_GqPBIm1zr8gWTs-6" edge="1">
          <mxGeometry relative="1" as="geometry" />
        </mxCell>
        <mxCell id="YGFIU_GqPBIm1zr8gWTs-55" style="edgeStyle=none;shape=connector;rounded=0;orthogonalLoop=1;jettySize=auto;html=1;labelBackgroundColor=default;fontFamily=Helvetica;fontSize=11;fontColor=default;endArrow=classic;strokeColor=default;" parent="1" source="YGFIU_GqPBIm1zr8gWTs-6" target="YGFIU_GqPBIm1zr8gWTs-33" edge="1">
          <mxGeometry relative="1" as="geometry" />
        </mxCell>
        <mxCell id="YGFIU_GqPBIm1zr8gWTs-56" style="edgeStyle=none;shape=connector;rounded=0;orthogonalLoop=1;jettySize=auto;html=1;labelBackgroundColor=default;fontFamily=Helvetica;fontSize=11;fontColor=default;endArrow=classic;strokeColor=default;" parent="1" source="YGFIU_GqPBIm1zr8gWTs-6" target="YGFIU_GqPBIm1zr8gWTs-38" edge="1">
          <mxGeometry relative="1" as="geometry" />
        </mxCell>
        <mxCell id="YGFIU_GqPBIm1zr8gWTs-30" style="edgeStyle=none;shape=connector;rounded=0;orthogonalLoop=1;jettySize=auto;html=1;labelBackgroundColor=default;fontFamily=Helvetica;fontSize=11;fontColor=default;endArrow=classic;strokeColor=default;" parent="1" source="YGFIU_GqPBIm1zr8gWTs-26" target="YGFIU_GqPBIm1zr8gWTs-29" edge="1">
          <mxGeometry relative="1" as="geometry" />
        </mxCell>
        <mxCell id="YGFIU_GqPBIm1zr8gWTs-51" style="edgeStyle=none;shape=connector;rounded=0;orthogonalLoop=1;jettySize=auto;html=1;labelBackgroundColor=default;fontFamily=Helvetica;fontSize=11;fontColor=default;endArrow=classic;strokeColor=default;" parent="1" source="YGFIU_GqPBIm1zr8gWTs-17" target="YGFIU_GqPBIm1zr8gWTs-33" edge="1">
          <mxGeometry relative="1" as="geometry" />
        </mxCell>
        <mxCell id="YGFIU_GqPBIm1zr8gWTs-7" value="&lt;span style=&quot;font-size: 12px ; background-color: rgb(248 , 249 , 250)&quot;&gt;QueueResPtr&lt;/span&gt;" style="rounded=0;orthogonalLoop=1;jettySize=auto;html=1;entryX=0.5;entryY=0;entryDx=0;entryDy=0;" parent="1" source="YGFIU_GqPBIm1zr8gWTs-1" target="YGFIU_GqPBIm1zr8gWTs-6" edge="1">
          <mxGeometry relative="1" as="geometry">
            <mxPoint x="230" y="151" as="sourcePoint" />
            <mxPoint x="230" y="231" as="targetPoint" />
          </mxGeometry>
        </mxCell>
        <mxCell id="YGFIU_GqPBIm1zr8gWTs-9" value="done" style="rounded=0;orthogonalLoop=1;jettySize=auto;html=1;" parent="1" source="YGFIU_GqPBIm1zr8gWTs-2" target="YGFIU_GqPBIm1zr8gWTs-15" edge="1">
          <mxGeometry x="0.2656" y="2" relative="1" as="geometry">
            <mxPoint x="686" y="550" as="targetPoint" />
            <mxPoint as="offset" />
          </mxGeometry>
        </mxCell>
        <mxCell id="YGFIU_GqPBIm1zr8gWTs-27" style="edgeStyle=none;shape=connector;rounded=0;orthogonalLoop=1;jettySize=auto;html=1;labelBackgroundColor=default;fontFamily=Helvetica;fontSize=11;fontColor=default;endArrow=classic;strokeColor=default;" parent="1" source="YGFIU_GqPBIm1zr8gWTs-26" target="YGFIU_GqPBIm1zr8gWTs-6" edge="1">
          <mxGeometry relative="1" as="geometry" />
        </mxCell>
        <mxCell id="YGFIU_GqPBIm1zr8gWTs-28" value="conv insta call" style="edgeLabel;html=1;align=center;verticalAlign=middle;resizable=0;points=[];fontSize=11;fontFamily=Helvetica;fontColor=default;" parent="YGFIU_GqPBIm1zr8gWTs-27" vertex="1" connectable="0">
          <mxGeometry x="-0.2088" y="2" relative="1" as="geometry">
            <mxPoint as="offset" />
          </mxGeometry>
        </mxCell>
      </root>
    </mxGraphModel>
  </diagram>
</mxfile>
